<?xml version="1.0" encoding="UTF-8" standalone="no"?>
<!-- Created with Inkscape (http://www.inkscape.org/) -->

<svg
   xmlns:dc="http://purl.org/dc/elements/1.1/"
   xmlns:cc="http://creativecommons.org/ns#"
   xmlns:rdf="http://www.w3.org/1999/02/22-rdf-syntax-ns#"
   xmlns:svg="http://www.w3.org/2000/svg"
   xmlns="http://www.w3.org/2000/svg"
   xmlns:sodipodi="http://sodipodi.sourceforge.net/DTD/sodipodi-0.dtd"
   xmlns:inkscape="http://www.inkscape.org/namespaces/inkscape"
   width="210mm"
   height="297mm"
   viewBox="0 0 744.09448819 1052.3622047"
   id="svg2"
   version="1.1"
   inkscape:version="0.91 r13725"
   sodipodi:docname="nyansapo_icon.svg"
   inkscape:export-filename="C:\Users\brad\Documents\nyansapo\nyansapo_50_90.png"
   inkscape:export-xdpi="38.370834"
   inkscape:export-ydpi="38.370834">
  <defs
     id="defs4" />
  <sodipodi:namedview
     id="base"
     pagecolor="#ffffff"
     bordercolor="#666666"
     borderopacity="1.0"
     inkscape:pageopacity="0.0"
     inkscape:pageshadow="2"
     inkscape:zoom="4"
     inkscape:cx="47.878809"
     inkscape:cy="952.42972"
     inkscape:document-units="px"
     inkscape:current-layer="layer1"
     showgrid="false"
     inkscape:window-width="2133"
     inkscape:window-height="1152"
     inkscape:window-x="-8"
     inkscape:window-y="-8"
     inkscape:window-maximized="1" />
  <metadata
     id="metadata7">
    <rdf:RDF>
      <cc:Work
         rdf:about="">
        <dc:format>image/svg+xml</dc:format>
        <dc:type
           rdf:resource="http://purl.org/dc/dcmitype/StillImage" />
        <dc:title></dc:title>
      </cc:Work>
    </rdf:RDF>
  </metadata>
  <g
     inkscape:label="Layer 1"
     inkscape:groupmode="layer"
     id="layer1">
    <path
       style="fill:#000000"
       d="M 41.988192,0.54498027 C 41.523965,0.56114143 41.062995,0.66529562 40.636667,0.86793756 39.90164,1.2173199 39.161534,1.9630321 38.829788,2.689356 38.568519,3.2613208 38.555119,4.2183679 38.551987,22.450998 l -0.003,19.160872 -1.014022,0.358161 C 32.465792,43.760527 25.63229,47.275932 20.774063,50.592695 16.726434,53.356043 11.742175,57.865937 9.1935092,61.069682 4.2848163,67.24005 1.4869523,73.741747 0.59303913,81.055552 0.22207013,84.090769 0.35948521,89.509473 0.88309189,92.476155 1.6051948,96.56756 2.7966792,100.2079 4.5182749,103.58299 l 0.798211,1.56581 -0.7951494,1.5903 c -3.4712426,6.94281 -4.83000002,15.74235 -3.76146094,24.35651 1.41221474,11.38473 6.90034564,21.00016 16.22517244,28.42639 5.435426,4.32873 12.057845,7.82895 19.39812,10.25352 l 2.116832,0.69949 0.09949,12.86856 c 0.05492,7.07781 0.09984,15.74844 0.101023,19.26802 l 0.0015,6.39945 0.444643,0.77525 c 0.454636,0.79269 0.950698,1.23524 1.83366,1.63546 0.340479,0.15438 0.821464,0.207 1.516068,0.16683 1.300954,-0.0752 2.234552,-0.61478 2.885952,-1.66836 l 0.454591,-0.73545 0.03905,-18.60756 c 0.03458,-16.37508 0.0668,-18.60833 0.264029,-18.60833 0.123266,0 1.390101,0.13217 2.815546,0.29311 8.307862,0.93804 16.482034,0.80087 23.213917,-0.38954 l 0.485964,-0.0865 0.0398,18.61215 0.0398,18.61292 0.325251,0.60077 c 0.728441,1.34747 1.85622,2.02881 3.358144,2.02881 1.068067,0 1.825193,-0.33022 2.61045,-1.13876 1.054129,-1.08542 0.994524,0.16564 0.99872,-20.94021 l 0.004,-19.02006 2.453556,-0.80127 c 3.228197,-1.05417 6.369963,-2.38111 9.743069,-4.11427 14.016131,-7.2018 22.932871,-18.47995 25.291711,-31.98963 0.65399,-3.7456 0.87513,-9.18331 0.51887,-12.78132 -0.50368,-5.08692 -1.73289,-9.55964 -3.78748,-13.78616 l -0.90458,-1.86198 0.99106,-2.04488 c 1.23287,-2.54457 1.74713,-3.859433 2.4306,-6.210431 2.17973,-7.497862 2.04312,-16.188599 -0.36658,-23.307281 C 113.12926,63.976639 106.10648,55.746721 95.397353,49.030708 91.454566,46.55807 86.905615,44.280184 82.503539,42.574619 l -2.254583,-0.87321 -0.075,-19.205261 C 80.113554,7.0547828 80.060067,3.2020414 79.900749,2.8401216 78.770722,0.2729708 75.275699,-0.20036563 73.606898,1.987575 c -0.266062,0.3488302 -0.55353,0.8860284 -0.639023,1.1938735 -0.105409,0.3795314 -0.15463,14.0804855 -0.153059,42.5599905 0.0025,41.930745 0.0025,42.001995 0.308412,42.67709 0.666171,1.471649 1.523441,1.99225 3.84182,2.334169 8.548182,1.260716 16.537755,4.554176 22.467748,9.260922 1.388464,1.10205 5.085434,4.83956 5.085434,5.14131 0,0.29463 -2.23865,2.77375 -3.88468,4.30252 -5.74041,5.33147 -14.311233,9.68612 -23.357791,11.86678 -2.682728,0.64667 -3.334806,0.98976 -3.985695,2.09693 l -0.404079,0.68648 -0.09031,20.10678 c -0.05197,11.56769 -0.148055,20.16141 -0.225759,20.23613 -0.16386,0.15749 -5.220784,0.83458 -8.024199,1.07448 -4.109323,0.35169 -10.097396,0.0633 -17.766496,-0.85637 l -0.861786,-0.10331 -0.0398,-20.15347 -0.04055,-20.15348 -0.336734,-0.63137 c -0.391818,-0.73309 -0.933644,-1.30887 -1.50994,-1.60561 -0.223902,-0.11529 -1.523009,-0.48636 -2.88672,-0.82423 -10.810936,-2.6785 -20.23944,-8.04676 -26.013392,-14.8109 l -1.017085,-1.19157 0.32372,-0.46148 c 0.598967,-0.85322 3.478506,-3.71442 4.767067,-4.736456 3.675827,-2.915515 7.963163,-5.225557 12.779783,-6.886955 3.480678,-1.200599 6.949923,-2.050702 9.986435,-2.44667 0.743835,-0.097 1.588788,-0.297888 1.878048,-0.446174 0.697008,-0.357287 1.424978,-1.13222 1.758666,-1.87346 0.258945,-0.575237 0.267854,-2.419778 0.216585,-42.902081 L 45.729943,3.1401221 45.411578,2.4873164 C 44.803125,1.2391675 43.381063,0.49649678 41.988377,0.54498027 Z M 38.46168,49.34831 c 0.04793,0 0.08724,7.761058 0.08724,17.246854 l 0,17.246854 -1.732647,0.350512 c -8.310709,1.681343 -16.8374,5.651298 -22.761621,10.597904 -0.702474,0.586545 -1.872708,1.655355 -2.600497,2.374733 l -1.323208,1.3079 -0.2900476,-0.678056 C 8.9524067,95.722231 8.0551107,92.06773 7.75239,89.288677 7.5531058,87.458987 7.5485837,83.793821 7.7439581,82.088712 9.1341495,69.956957 17.642471,59.603633 32.387456,52.102635 34.424009,51.066614 38.213822,49.34831 38.46166,49.34831 Z m 41.787035,0.02906 2.103818,0.933669 c 16.667581,7.395394 26.507907,18.016994 28.395777,30.651125 0.80366,5.37825 0.16245,11.410555 -1.73647,16.334611 -0.25231,0.654241 -0.50421,1.17707 -0.5602,1.160964 -0.056,-0.01611 -0.84061,-0.761733 -1.74336,-1.656881 -5.6484,-5.600817 -14.037381,-9.972227 -23.529219,-12.260141 -1.0331,-0.249022 -2.165817,-0.498687 -2.517076,-0.554845 l -0.638266,-0.101785 0.02063,-13.548913 c 0.01149,-7.451793 0.06205,-15.215406 0.112501,-17.252972 l 0.09183,-3.704832 z m -70.110109,62.48847 1.738766,1.72116 c 6.417192,6.35205 15.061091,11.15059 25.581764,14.20019 l 1.089789,0.3153 0,17.42517 c 0,9.58378 -0.01686,17.41858 -0.03749,17.41063 -0.02063,-0.008 -0.308432,-0.11886 -0.639028,-0.24643 C 32.515741,160.625 29.681946,159.30412 26.642363,157.45719 16.346923,151.20144 10.085751,142.62366 8.2735725,132.29252 7.0679044,125.41906 7.6927543,118.07328 9.9763721,112.2768 l 0.1622439,-0.41096 z m 98.386504,0.2518 c 0.0236,0.007 0.0414,0.0219 0.0559,0.0444 0.28332,0.44057 1.23277,3.55911 1.57806,5.18338 0.8649,4.0686 1.05068,9.61727 0.45765,13.68591 -0.65048,4.46287 -2.23774,9.02863 -4.40049,12.65733 -4.76945,8.0023 -13.143711,14.46107 -23.977684,18.4943 -1.137259,0.42337 -2.100831,0.7699 -2.141319,0.7699 -0.0405,0 -0.07347,-7.84403 -0.07347,-17.43129 0,-14.29969 0.03543,-17.4313 0.197447,-17.4313 0.108616,0 1.378497,-0.36833 2.821669,-0.81811 7.36645,-2.2958 14.365665,-5.85979 19.596335,-9.97801 1.47808,-1.16372 2.16428,-1.78035 4.10126,-3.68646 1.193,-1.17401 1.61918,-1.53813 1.78468,-1.49004 z"
       id="path3347"
       inkscape:connector-curvature="0"
       inkscape:export-xdpi="152.63593"
       inkscape:export-ydpi="152.63593" />
  </g>
</svg>
